ILVERTORRENT Clean Verified Torrents Download
                              
http://silvertorrent.org/ __________________ http://silvertorrent.org/

------------------------------------------------------------------------
                  
http://www.shotpix.com/images/08096634903738710469.png 

IMDB:http://www.imdb.com/title/tt1234719/

Plot:A group of teenagers look to save their town from an invasion of North Korean soldiers.

NOTES:
source was pretty nice but had some cam shakes. for doing the best cropping,
i cutted source into many pieces and used rotation and perspective filters.

Code
General
Complete name                            : Red Dawn 2012 CAM XviD-DiRTYMARY (SilverTorrent).avi
Format                                   : AVI
Format/Info                              : Audio Video Interleave
File size                                : 1.37 GiB
Duration                                 : 1h 28mn
Overall bit rate                         : 2 228 Kbps
Recorded date                            : 2012-11-26T16:29:45.0095+01:00
Writing application                      : VirtualDubMod 1.5.10.2 (build 2540/release)
Writing library                          : VirtualDubMod build 2540/release

Video
ID                                       : 0
Format                                   : MPEG-4 Visual
Format profile                           : Advanced Simple@L5
Format settings, BVOP                    : 2
Format settings, QPel                    : No
Format settings, GMC                     : No warppoints
Format settings, Matrix                  : Default (H.263)
Codec ID                                 : XVID
Codec ID/Hint                            : XviD
Duration                                 : 1h 28mn
Bit rate                                 : 2 091 Kbps
Width                                    : 720 pixels
Height                                   : 304 pixels
Display aspect ratio                     : 2.25:1
Original display aspect ratio            : 2.35:1
Frame rate                               : 24.000 fps
Color space                              : YUV
Chroma subsampling                       : 4:2:0
Bit depth                                : 8 bits
Scan type                                : Progressive
Compression mode                         : Lossy
Bits/(Pixel*Frame)                       : 0.398
Stream size                              : 1.29 GiB (94%)
Writing library                          : XviD 64

Audio
ID                                       : 1
Format                                   : MPEG Audio
Format version                           : Version 1
Format profile                           : Layer 3
Mode                                     : Joint stereo
Mode extension                           : MS Stereo
Codec ID                                 : 55
Codec ID/Hint                            : MP3
Duration                                 : 1h 28mn
Bit rate mode                            : Constant
Bit rate                                 : 128 Kbps
Channel(s)                               : 2 channels
Sampling rate                            : 44.1 KHz
Compression mode                         : Lossy
Stream size                              : 80.6 MiB (6%)
Alignment                                : Split accross interleaves
Interleave, duration                     : 42 ms (1.00 video frame)
Interleave, preload duration             : 500 ms

Screen shots: 
http://silvertorrent.org/index.php?page=torrent-details&id=48e1323f4ead936e7904e48d9fc8f7899099fec9